<?xml version="1.0" standalone="no"?>
<!DOCTYPE svg PUBLIC "-//W3C//DTD SVG 20010904//EN"
 "http://www.w3.org/TR/2001/REC-SVG-20010904/DTD/svg10.dtd">
<svg version="1.0" xmlns="http://www.w3.org/2000/svg"
 width="1024.000000pt" height="1024.000000pt" viewBox="0 0 1024.000000 1024.000000"
 preserveAspectRatio="xMidYMid meet">
<metadata>
Created by potrace 1.11, written by Peter Selinger 2001-2013
</metadata>
<g transform="translate(0.000000,1024.000000) scale(0.100000,-0.100000)"
fill="#000000" stroke="none">
<path d="M4455 9584 c-16 -9 -48 -26 -70 -39 -22 -13 -43 -23 -48 -24 -4 0
-13 -5 -20 -11 -6 -5 -58 -43 -113 -84 -103 -75 -245 -209 -300 -282 -16 -21
-34 -45 -41 -52 -17 -18 -116 -171 -136 -209 -10 -18 -23 -45 -31 -60 -18 -36
-59 -125 -63 -138 -1 -5 -16 -48 -32 -95 -17 -47 -30 -93 -30 -102 -1 -10 -4
-18 -8 -18 -5 0 -9 -12 -9 -27 -1 -16 -4 -37 -7 -48 -6 -24 -19 -110 -21 -145
-1 -14 -4 -30 -7 -35 -5 -9 -4 -330 1 -330 1 0 8 -48 14 -100 2 -16 6 -43 10
-60 4 -16 16 -68 27 -115 11 -47 24 -94 29 -105 7 -17 55 -182 65 -225 2 -8 4
-16 5 -17 2 -2 3 -6 4 -10 2 -5 8 -28 16 -53 14 -48 18 -63 23 -82 1 -7 6 -19
10 -25 5 -7 6 -13 2 -13 -3 0 -1 -9 5 -19 5 -11 13 -37 16 -58 3 -21 11 -44
17 -52 10 -12 9 -13 -2 -7 -9 6 -9 2 2 -15 9 -13 21 -44 27 -69 6 -25 13 -52
15 -60 3 -8 17 -58 32 -110 16 -52 31 -99 34 -105 4 -5 5 -18 4 -27 -2 -10 1
-18 6 -18 6 0 8 -4 4 -9 -3 -5 0 -13 6 -16 5 -4 8 -13 5 -20 -2 -7 2 -24 9
-39 8 -14 12 -26 10 -26 -2 0 5 -26 16 -57 11 -32 17 -63 15 -70 -3 -7 -2 -13
3 -13 6 0 35 -89 47 -142 1 -5 2 -9 4 -10 1 -2 3 -10 5 -18 2 -8 17 -62 35
-119 17 -57 32 -116 33 -131 1 -16 5 -26 8 -24 6 4 35 -106 31 -118 -1 -5 2
-8 6 -8 4 0 9 -12 10 -26 1 -15 6 -32 11 -38 5 -6 11 -25 14 -43 3 -17 8 -37
12 -42 3 -6 8 -19 10 -28 22 -90 23 -82 -38 -233 -32 -80 -59 -151 -60 -157 0
-7 -4 -13 -8 -13 -4 0 -10 -16 -13 -35 -4 -19 -11 -35 -17 -35 -6 0 -8 -3 -5
-8 2 -4 -6 -30 -19 -57 -13 -28 -24 -58 -24 -67 -1 -9 -5 -19 -10 -22 -5 -3
-12 -18 -16 -33 -3 -16 -13 -44 -22 -63 -8 -19 -22 -49 -29 -67 -8 -17 -14
-34 -14 -38 0 -19 -47 -106 -77 -143 -78 -96 -215 -140 -341 -109 -65 16 -192
117 -192 152 0 8 -4 15 -9 15 -8 0 -18 19 -28 55 -1 6 -5 26 -8 45 -3 19 -8
40 -10 46 -2 6 1 17 5 24 5 8 6 19 2 25 -10 16 -9 479 1 493 5 6 6 12 1 12 -5
0 -9 133 -9 295 0 190 4 295 10 295 7 0 7 3 0 8 -14 10 -14 332 0 332 7 0 7 3
0 8 -13 9 -14 145 0 154 6 5 6 8 0 8 -7 0 -10 185 -10 533 -1 424 -4 543 -15
587 -8 30 -15 57 -15 60 -3 17 -69 135 -88 157 -57 67 -133 127 -194 154 -18
8 -33 16 -33 19 0 3 -11 7 -26 8 -14 1 -33 6 -43 11 -45 25 -194 18 -312 -13
-29 -8 -113 -53 -139 -75 -14 -12 -40 -34 -58 -49 -18 -15 -42 -43 -54 -62
-12 -19 -25 -37 -29 -40 -10 -8 -55 -104 -64 -137 -4 -15 -10 -37 -13 -48 -3
-11 -7 -209 -9 -440 -2 -231 -3 -422 -3 -425 -1 -3 -1 -68 0 -145 1 -136 6
-160 34 -149 6 2 29 6 51 8 22 2 40 5 40 6 0 1 10 3 22 6 36 6 130 51 175 83
86 60 139 121 189 219 21 42 37 78 34 80 -2 3 0 12 4 21 32 59 28 259 -7 346
-23 55 -69 142 -84 157 -10 10 -16 18 -13 18 6 0 -69 74 -100 98 -21 17 -23
23 -15 53 5 19 11 39 12 44 6 25 88 106 100 99 4 -3 8 -1 8 5 0 25 119 30 175
7 41 -18 105 -77 105 -98 0 -8 6 -20 13 -26 9 -10 12 -236 14 -1050 2 -964 9
-1773 15 -1814 1 -10 7 -18 12 -18 5 0 7 -3 4 -6 -4 -3 0 -20 7 -37 7 -18 13
-35 14 -40 0 -4 7 -20 15 -36 9 -16 12 -31 9 -35 -4 -3 -2 -6 4 -6 5 0 20 -20
32 -44 22 -42 152 -186 169 -186 5 0 17 -8 28 -18 29 -27 167 -92 209 -98 11
-2 41 -8 67 -13 26 -6 83 -9 128 -8 65 2 80 -1 82 -13 3 -33 -4 -135 -11 -140
-3 -3 -7 -18 -9 -35 -4 -39 -58 -155 -72 -155 -6 0 -9 -4 -6 -9 9 -14 -119
-151 -140 -151 -7 0 -14 -7 -18 -15 -3 -8 -12 -15 -21 -15 -8 0 -15 -4 -15
-10 0 -5 -7 -10 -16 -10 -8 0 -25 -6 -37 -12 -12 -7 -42 -20 -67 -28 l-45 -15
-1 -485 c0 -267 1 -489 3 -495 2 -5 17 -10 34 -9 72 2 279 -70 279 -97 0 -5 6
-9 13 -9 6 0 33 -20 59 -45 27 -25 46 -45 43 -45 -2 0 6 -11 19 -25 56 -61
115 -211 121 -310 2 -22 3 -42 4 -45 1 -6 132 -2 139 4 2 3 15 1 28 -4 13 -5
26 -6 29 0 3 5 18 5 35 0 19 -5 30 -5 30 1 0 6 6 6 18 0 11 -6 24 -6 35 0 11
7 17 7 17 0 0 -10 32 -7 50 4 6 3 10 3 10 -2 0 -4 11 -8 25 -8 14 0 25 3 25 7
0 4 14 3 30 -2 19 -5 30 -5 30 1 0 6 6 6 18 0 11 -6 24 -6 32 -1 9 5 19 5 27
-1 8 -7 18 -7 32 0 12 7 22 7 26 1 3 -5 15 -6 28 -1 12 5 32 5 44 0 13 -5 25
-4 28 1 3 6 15 6 30 0 15 -6 27 -6 30 0 4 6 13 7 24 1 10 -6 23 -6 31 -1 8 5
21 5 30 0 9 -5 23 -4 33 1 11 7 17 7 17 0 0 -6 11 -6 30 -1 18 5 32 5 35 -1 4
-5 14 -5 25 1 13 7 21 7 25 0 5 -8 11 -7 21 1 7 6 11 16 8 21 -3 5 -8 24 -11
41 -8 55 -50 135 -93 177 -36 36 -87 69 -107 71 -5 1 -15 5 -24 10 -29 15 -98
20 -297 20 l-194 1 -21 25 c-30 35 -90 101 -132 144 -19 20 -35 41 -35 48 0 6
-7 11 -15 11 -8 0 -15 4 -15 8 0 5 -23 32 -51 62 -53 56 -91 122 -105 180 -9
43 -13 121 -6 135 3 5 7 19 8 31 4 40 78 164 98 164 3 0 15 9 26 20 22 22 43
22 80 -1 14 -9 66 -40 115 -70 50 -30 92 -56 95 -59 3 -3 19 -12 35 -20 17 -8
46 -26 65 -39 19 -12 44 -27 55 -33 11 -5 36 -19 57 -31 115 -70 133 -81 138
-86 3 -3 21 -14 40 -25 76 -40 105 -59 112 -70 4 -6 8 -7 8 -2 0 4 11 1 24 -8
49 -31 180 -41 251 -18 79 25 185 99 185 128 0 7 7 14 15 18 8 3 15 12 15 19
0 8 7 20 15 27 9 7 13 15 11 18 -3 2 -1 13 5 24 21 38 27 159 11 213 -16 53
-51 119 -80 150 -15 17 -31 38 -35 48 -3 9 -11 17 -17 17 -5 0 -10 5 -10 11 0
6 -11 24 -25 41 -14 16 -25 36 -25 44 0 8 -4 14 -8 14 -5 0 -24 30 -43 68 -19
37 -36 69 -39 72 -10 8 -71 171 -73 191 -1 11 -4 19 -8 19 -3 0 -10 19 -14 43
-4 23 -10 49 -12 57 -3 8 -5 27 -6 42 -1 14 -5 24 -8 22 -3 -2 -7 11 -8 29 -5
75 -7 93 -12 102 -6 12 -2 249 5 327 5 47 23 136 40 193 1 6 6 27 11 48 4 20
11 37 17 37 5 0 7 4 4 9 -4 5 4 31 16 58 11 26 22 53 23 58 7 28 73 144 79
138 4 -4 4 0 0 10 -3 10 -1 17 5 17 6 0 11 7 11 15 0 8 5 15 10 15 6 0 10 6
10 13 0 13 92 139 137 188 87 92 230 219 248 219 4 0 13 6 20 13 38 33 95 70
95 61 0 -4 8 -1 18 7 28 24 102 61 102 52 0 -4 4 -2 9 5 4 7 17 15 27 17 10 2
20 4 22 5 1 2 5 3 10 5 4 1 21 7 37 14 76 32 242 74 257 65 5 -3 8 -2 8 3 0 4
10 9 23 11 12 1 344 5 737 7 813 4 936 8 950 26 3 4 16 9 30 10 14 2 31 10 38
17 8 7 17 10 22 7 5 -3 10 -2 12 2 1 5 16 15 32 24 41 23 145 112 145 125 1 6
12 21 25 33 13 13 27 34 30 47 4 14 10 23 15 20 4 -3 8 0 8 7 0 7 10 39 21 72
11 33 23 78 27 100 3 22 7 302 8 622 2 579 2 583 -18 576 -11 -3 -44 -21 -73
-39 -29 -19 -57 -34 -62 -34 -6 0 -10 -4 -10 -10 0 -5 -5 -10 -10 -10 -15 0
-118 -107 -125 -130 -4 -11 -11 -20 -16 -20 -6 0 -8 -4 -4 -9 3 -5 1 -12 -4
-16 -5 -3 -10 -13 -10 -23 0 -9 0 -123 -1 -254 -1 -243 -4 -260 -40 -238 -7 5
-23 5 -34 1 -25 -8 -123 -7 -132 2 -4 3 -15 2 -25 -3 -12 -7 -20 -7 -24 0 -4
6 -12 7 -23 1 -9 -5 -26 -5 -38 -1 -12 5 -25 6 -28 2 -10 -9 -76 -9 -76 1 0 4
-5 5 -12 1 -18 -12 -58 -11 -58 1 0 7 -3 7 -8 0 -8 -12 -61 -13 -79 -2 -6 4
-14 3 -17 -2 -6 -9 -77 -8 -94 3 -6 3 -13 2 -16 -2 -3 -5 -18 -7 -33 -5 -32 5
-50 5 -78 -1 -11 -2 -26 1 -32 7 -7 5 -13 6 -13 1 0 -5 -18 -9 -40 -9 -22 -1
-40 3 -40 8 0 6 -5 6 -12 0 -16 -11 -48 -11 -67 1 -7 5 -16 5 -20 0 -6 -10
-130 -13 -132 -4 -1 5 -4 34 -10 105 -1 17 -9 59 -16 95 -18 82 -16 75 -38
140 -11 30 -18 58 -17 63 1 4 -2 7 -6 7 -5 0 -17 20 -28 45 -10 25 -22 45 -26
45 -4 0 -8 5 -8 11 0 31 -148 195 -226 251 -24 17 -44 36 -44 41 0 6 -3 8 -6
4 -3 -3 -24 5 -45 19 -21 13 -40 24 -43 24 -2 0 -25 10 -52 22 -27 12 -56 23
-64 24 -8 2 -16 8 -18 14 -2 5 -8 8 -13 5 -7 -5 -52 10 -134 46 -34 14 -169
61 -192 66 -13 3 -23 10 -23 15 0 5 -4 6 -10 3 -5 -3 -10 -2 -10 2 0 5 -11 10
-25 11 -14 1 -38 8 -53 15 -15 8 -58 25 -97 38 -38 13 -72 26 -75 29 -3 3 -12
6 -20 8 -55 10 -187 112 -174 133 3 5 1 9 -5 9 -19 0 -52 94 -55 160 -2 36 -2
68 0 72 4 6 16 2 89 -27 11 -5 22 -9 25 -9 4 -1 80 -28 120 -43 8 -3 20 -7 25
-9 6 -1 28 -10 50 -20 138 -59 237 -64 336 -16 78 37 104 61 146 129 32 51 31
63 -2 69 -14 3 -173 59 -210 75 -16 7 -39 14 -50 16 -11 2 -24 8 -29 13 -6 6
-20 10 -33 10 -13 0 -23 5 -23 10 0 6 -6 10 -13 10 -40 0 -131 100 -148 164
-17 59 -14 166 4 166 6 0 8 3 4 6 -7 8 13 54 38 85 27 34 86 76 110 81 11 1
23 7 26 11 7 10 103 12 139 4 33 -7 219 -74 245 -88 12 -5 27 -11 35 -13 29
-5 60 -17 60 -24 0 -4 11 -8 25 -8 32 -2 43 35 38 123 -5 109 -68 216 -157
268 -38 22 -156 68 -296 115 -30 10 -107 37 -170 60 -63 23 -135 48 -160 56
-25 8 -52 18 -60 21 -8 4 -18 7 -22 8 -5 2 -10 4 -13 5 -3 1 -8 3 -12 5 -5 1
-15 4 -23 7 -29 11 -195 70 -220 78 -14 4 -34 12 -45 16 -11 4 -22 8 -25 9 -3
1 -12 4 -20 8 -25 10 -421 147 -423 147 -1 -1 -15 -8 -32 -16z"/>
<path d="M7133 9068 c-43 -44 -83 -128 -86 -177 -1 -23 -5 -41 -8 -41 -4 0 -5
-14 -3 -31 11 -92 51 -177 117 -250 9 -10 17 -23 17 -29 0 -5 8 -17 18 -27 22
-21 142 -180 142 -187 0 -3 12 -17 26 -32 l27 -26 -26 -21 c-82 -68 -106 -87
-111 -87 -3 0 -14 -8 -25 -17 -10 -10 -31 -27 -45 -38 -15 -11 -33 -26 -41
-32 -7 -7 -16 -13 -19 -13 -3 0 -16 -10 -30 -22 -13 -13 -30 -27 -38 -33 -7
-5 -31 -23 -53 -39 -22 -17 -42 -33 -45 -36 -18 -21 -88 -68 -94 -63 -3 3 -6
1 -6 -5 0 -10 -128 -115 -189 -154 -27 -18 -60 -44 -112 -90 -17 -15 -36 -29
-42 -32 -7 -2 5 -19 27 -38 108 -91 256 -251 256 -277 0 -6 3 -11 8 -11 11 0
85 -130 74 -130 -4 0 -2 -4 4 -8 10 -7 46 -78 50 -97 1 -5 9 -32 19 -60 19
-56 26 -81 29 -109 4 -29 21 -30 45 -5 12 13 21 20 21 17 0 -3 19 12 42 33 24
22 46 39 49 39 3 0 15 8 26 18 11 9 35 28 53 42 87 65 135 105 138 112 2 4 10
8 17 8 7 0 15 7 19 15 3 8 12 15 21 15 8 0 15 4 15 8 0 4 39 37 87 73 47 35
91 69 97 74 6 6 40 33 76 60 91 68 151 131 192 201 37 64 70 149 60 158 -3 3
-1 6 4 6 14 0 22 188 11 240 -12 50 -21 79 -34 110 -21 51 -37 84 -46 95 -4 6
-71 96 -149 200 -78 105 -146 195 -150 200 -5 6 -36 46 -69 90 -32 44 -65 87
-72 95 -6 8 -66 88 -132 177 -66 89 -122 162 -126 163 -3 0 -19 -15 -36 -32z"/>
<path d="M6387 4804 c-2 -2 -29 -6 -62 -10 -32 -3 -66 -7 -74 -9 -9 -1 -36 -6
-61 -10 -60 -10 -93 -17 -155 -34 -22 -6 -51 -12 -65 -15 -14 -2 -25 -5 -25
-6 0 -1 -7 -3 -15 -5 -8 -1 -42 -11 -75 -21 -33 -10 -63 -19 -67 -20 -5 -1
-10 -3 -13 -4 -3 -1 -8 -3 -12 -4 -5 -1 -14 -5 -20 -9 -7 -5 -17 -5 -23 -2 -5
3 -10 1 -10 -4 0 -6 -6 -11 -14 -11 -8 0 -27 -5 -43 -12 -32 -13 -52 -19 -70
-20 -7 -1 -13 -5 -13 -9 0 -5 -16 -11 -35 -15 -19 -3 -35 -11 -35 -17 0 -6 -3
-8 -6 -4 -6 5 -37 -7 -136 -52 -26 -11 -51 -21 -55 -21 -4 0 -37 -15 -73 -33
-36 -19 -69 -35 -75 -36 -5 -2 -28 -13 -50 -24 -22 -11 -47 -22 -55 -23 -8 -2
-16 -8 -18 -13 -2 -6 -11 -11 -21 -11 -9 0 -23 -6 -29 -12 -7 -7 -16 -13 -20
-14 -16 -2 -56 -23 -44 -23 6 -1 12 -8 12 -16 0 -8 5 -15 11 -15 5 0 7 -4 4
-10 -3 -5 -1 -10 5 -10 6 0 9 -4 6 -9 -4 -5 -3 -11 2 -13 12 -5 77 -110 75
-120 -2 -4 2 -8 7 -8 11 0 35 -49 31 -63 -1 -5 3 -6 8 -3 9 6 38 -52 33 -67
-1 -5 1 -6 6 -3 5 3 15 -7 23 -22 8 -15 16 -29 19 -32 15 -14 75 -124 72 -132
-1 -5 3 -6 10 -2 12 8 77 7 120 -1 63 -12 84 -18 96 -27 6 -6 12 -8 12 -5 0 7
84 -38 106 -55 29 -24 89 -84 109 -109 26 -31 71 -132 86 -188 22 -91 8 -245
-28 -300 -11 -17 -12 -21 -2 -16 8 5 6 -1 -4 -12 -10 -11 -19 -29 -19 -39 -1
-16 131 -245 162 -281 5 -7 10 -15 10 -18 0 -9 54 -89 65 -97 5 -4 7 -8 3 -8
-4 0 29 -57 73 -126 43 -69 79 -130 79 -135 0 -5 5 -9 10 -9 6 0 10 -5 10 -11
0 -6 10 -25 22 -42 13 -18 23 -34 23 -37 1 -8 39 -64 48 -71 5 -3 8 -9 8 -13
-1 -3 14 -30 32 -59 18 -28 46 -74 62 -102 16 -27 32 -52 35 -55 4 -3 9 -13
13 -23 5 -13 16 -17 41 -15 20 1 38 -1 42 -5 4 -3 15 -2 25 4 12 6 19 6 19 0
0 -6 11 -6 30 -1 17 5 28 5 26 1 -3 -4 10 -7 29 -7 18 1 31 4 28 8 -2 5 7 4
20 -1 16 -6 28 -6 36 2 6 6 11 7 11 1 0 -5 13 -9 29 -9 16 0 27 3 24 7 -2 5 7
4 21 -2 15 -5 28 -6 31 0 3 6 15 6 30 0 15 -6 27 -6 30 0 4 6 13 7 23 1 11 -6
24 -6 35 0 9 6 17 6 17 2 0 -4 47 -8 105 -8 58 0 105 4 105 8 0 4 8 3 18 -2
11 -6 24 -6 34 0 10 6 19 6 23 0 4 -7 15 -7 30 -1 14 5 25 6 25 1 0 -6 34 -7
50 -1 3 1 10 1 15 0 27 -6 185 -4 185 2 0 4 11 3 25 -2 30 -12 36 -3 31 48
-10 98 -93 214 -184 255 -68 30 -57 29 -301 34 -170 4 -227 8 -238 18 -7 8
-13 16 -13 20 0 8 -53 89 -63 96 -5 3 -8 9 -8 13 1 7 -36 70 -96 164 -24 37
-46 75 -49 85 -3 9 -9 17 -14 17 -6 0 -21 36 -19 49 0 2 -4 7 -10 10 -13 8
-121 180 -121 192 0 5 -4 9 -10 9 -5 0 -10 6 -10 13 0 10 -40 76 -67 112 -5 6
-15 24 -23 40 -8 17 -25 44 -37 61 -24 33 -22 64 4 64 8 0 11 5 8 10 -3 6 4
14 17 19 13 6 20 10 17 10 -4 1 14 22 40 49 25 26 49 46 54 44 4 -2 7 1 7 6 0
4 25 35 55 67 30 33 55 63 55 67 0 3 9 9 20 13 11 3 19 10 17 15 -2 8 5 17 66
82 19 21 32 40 29 42 -3 3 3 8 12 12 9 3 16 10 16 15 0 6 9 20 20 31 11 12 46
61 77 108 31 47 60 87 63 90 7 5 123 240 136 275 14 39 25 83 31 122 3 18 8
31 12 29 8 -5 6 106 -4 169 -12 74 -82 195 -114 195 -5 0 -14 7 -22 16 -7 9
-30 23 -51 31 -21 8 -38 20 -38 26 0 6 -3 8 -6 4 -3 -3 -27 1 -52 8 -26 8 -65
17 -87 21 -39 7 -292 13 -298 8z"/>
</g>
</svg>
